name 900006_25rea_lsw
datacolumns 54
datarows 4
range 0.7333300000000000 0.7693300000000001
cursor 1.0 1.0 0.0
keys m_key
wrap
enforce_loops no
enforce_constraints no
calc_derivatives 0.012000
event_color 1.000000 0.000000 1.000000
endheader

time	calcn_r_tx	calcn_r_ty	calcn_r_tz	calcn_r_r1	calcn_r_r2	calcn_r_r3	calcn_l_tx	calcn_l_ty	calcn_l_tz	calcn_l_r1	calcn_l_r2	calcn_l_r3	pelvis_tz	pelvis_tx	pelvis_ty	pelvis_tilt	pelvis_list	pelvis_rotation	hip_flexion_r	hip_adduction_r	hip_rotation_r	knee_angle_r	ankle_angle_r	subtalar_angle_r	mtp_angle_r	hip_flexion_l	hip_adduction_l	hip_rotation_l	knee_angle_l	ankle_angle_l	subtalar_angle_l	mtp_angle_l	lumbar_extension	lumbar_bending	lumbar_rotation	ground_force_px	ground_force_py	ground_force_pz	ground_force_vx	ground_force_vy	ground_force_vz	ground_force_px	ground_force_py	ground_force_pz	ground_force_vx	ground_force_vy	ground_force_vz	ground_torque_x	ground_torque_y	ground_torque_z	ground_torque_x	ground_torque_y	ground_torque_z	
      0.7333300000000000	     -1.6249186497388153	      0.0294885596993819	      0.3367744044292245	      2.1266112991212998	     -5.0069074091051604	      9.4815611653974692	     -2.0828276924302682	      0.0662095372934657	      0.2123210365479631	     -0.8783480129116607	      3.4500020542626193	    -14.9918417342338890	      0.2610619542854213	     -1.7170544222830717	      0.8035796053328128	      1.2477443040775975	      0.2501012748937292	     -2.4030632682163904	     24.0405442772962170	      0.6038655066756347	     -3.0683001185246352	    -16.4001738392057810	      0.5036064238049017	      0.0000000000000000	      0.0000000000000000	    -14.2001317611811380	      3.5656390062508856	     -8.0880803964825532	    -15.6717525968173170	     14.1593085549124070	      0.0000000000000000	      0.0000000000000000	     -2.5903780288120726	      4.1599161283258024	      2.0838775281888693	     -1.6050431895750885	      0.0000000000000000	      0.3259241603217153	     -4.8134901307402567	    125.3314219427147100	      8.6869129019963207	     -1.9251185781496625	      0.0000000000000000	      0.2107841389613651	     53.1143931629677940	    408.8732480359399200	     16.2700132416621490	      0.0000000000000000	     -0.0810387011447780	      0.0000000000000000	      0.0000000000000000	     -0.5499184633888634	      0.0000000000000000	
      0.7453300000000001	     -1.6241693266922779	      0.0299001629352939	      0.3376849884158568	      2.0344946998034681	     -4.0117329941500977	      7.5872346281467147	     -2.0816272899085053	      0.0708643186022784	      0.2123167157164085	     -0.7480316268372915	      3.4400128366252898	    -16.3627868887959770	      0.2626809180428512	     -1.7085269535855701	      0.8039737694386687	      1.2890492800420223	      0.1701604021648684	     -2.2402583360704540	     23.8987585753337480	      0.8283745328489865	     -2.4254649413339875	    -17.3416803994619820	     -0.3499771192780445	      0.0000000000000000	      0.0000000000000000	    -14.4037696284938710	      3.2617050129461678	     -7.9271867647282326	    -16.6135031229882630	     13.8626794771755080	      0.0000000000000000	      0.0000000000000000	     -2.9109138951236941	      4.2635555285917981	      1.5393539601372679	     -1.6035145802135076	      0.0000000000000000	      0.3260358041737360	     -6.1032272804514411	    152.4465718662389700	     10.1697199296528710	     -1.9238452056150235	      0.0000000000000000	      0.2111557098105457	     53.6948234102480130	    388.9541231218830700	     14.4555100624719760	      0.0000000000000000	     -0.1270200796053514	      0.0000000000000000	      0.0000000000000000	     -0.4759829186982316	      0.0000000000000000	
      0.7573300000000001	     -1.6237116500838713	      0.0307034046543720	      0.3387833397521500	      1.9509034265351168	     -3.0635262927367450	      5.7881681063854558	     -2.0799504948034815	      0.0761034818366689	      0.2121616182643801	     -0.6707935858276233	      3.2886650884950086	    -17.8818152861809030	      0.2644321656493265	     -1.6997256327587800	      0.8047739321831916	      1.3901996294144059	      0.0201947976774194	     -2.1256512599409945	     23.6635349916633790	      1.1422844511558288	     -1.7806756309611040	    -18.3322026202964990	     -1.0268806297239907	      0.0000000000000000	      0.0000000000000000	    -14.6021430236034460	      2.9042903770859714	     -7.6677995446855167	    -17.6830202500773770	     13.4753755345993810	      0.0000000000000000	      0.0000000000000000	     -3.2454845245110340	      4.4529897535884233	      1.0577627350728780	     -1.6011178335199709	      0.0000000000000000	      0.3264763405984748	    -17.2351243037590290	    161.8365280179205000	      7.1435908474633454	     -1.9223706102646223	      0.0000000000000000	      0.2116812827495466	     53.3460682356872480	    363.7368621076162800	     12.1952384742563740	      0.0000000000000000	     -0.1831004013658671	      0.0000000000000000	      0.0000000000000000	     -0.4013592882122686	      0.0000000000000000	
      0.7693300000000001	     -1.6233311565014987	      0.0317346924640414	      0.3399567171802902	      1.8867343207926335	     -2.2306501932552467	      4.2102792851203299	     -2.0778008024748096	      0.0819355362282079	      0.2117799843650559	     -0.6503164168880239	      3.0049917377127731	    -19.5895410272569420	      0.2662847009767176	     -1.6907499765737615	      0.8059218365524349	      1.5415191964715220	     -0.1815161565274186	     -2.0556727722068340	     23.3146200912999220	      1.5201484080642420	     -1.1892439696619876	    -19.2712719006544650	     -1.4707554473365345	      0.0000000000000000	      0.0000000000000000	    -14.7703708994176410	      2.5121252005843724	     -7.3014963793750276	    -18.8935059343043110	     12.9544852296905300	      0.0000000000000000	      0.0000000000000000	     -3.6111703311646131	      4.7094613478656111	      0.6379593408529342	     -1.5983105142366070	      0.0000000000000000	      0.3273183719802129	    -26.0591804624414610	    169.1301283137650800	      3.0970903224309492	     -1.9208518277169260	      0.0000000000000000	      0.2123293365257022	     52.2737016695993190	    334.4655856605293700	      9.6497596760596913	      0.0000000000000000	     -0.2686904390162948	      0.0000000000000000	      0.0000000000000000	     -0.3375305142196754	      0.0000000000000000	
